<?xml version="1.0" encoding="utf-8"?>
<!-- Generator: Adobe Illustrator 16.0.0, SVG Export Plug-In . SVG Version: 6.00 Build 0)  -->
<!DOCTYPE svg PUBLIC "-//W3C//DTD SVG 1.1//EN" "http://www.w3.org/Graphics/SVG/1.1/DTD/svg11.dtd">
<svg version="1.1" id="Layer_1" xmlns="http://www.w3.org/2000/svg" xmlns:xlink="http://www.w3.org/1999/xlink" x="0px" y="0px"
	 width="517.824px" height="181px" viewBox="0 0 517.824 181" enable-background="new 0 0 517.824 181" xml:space="preserve">
<g>
	<g>
		<path fill="#44B0E4" d="M479.301,147.193c0,5.5-4.5,10-10,10H48.524c-5.5,0-10-4.5-10-10V33.807c0-5.5,4.5-10,10-10h420.777
			c5.5,0,10,4.5,10,10V147.193z"/>
	</g>
	<path fill="#FFFFFF" d="M196.777,129.469c-7.949,0-14.895-1.461-21.195-4.467l2.245-14.424c6.357,3.311,12.242,4.924,17.938,4.924
		c7.457,0,8.26-4.291,8.26-6.135c0-4.113-4.431-5.953-9.562-8.086c-8.015-3.33-17.991-7.475-17.991-21.492
		c0-13.235,10.562-22.126,26.278-22.126c8.731,0,14.484,1.563,18.572,3.045l-1.983,14.549c-4.677-2.256-10.603-3.624-15.875-3.624
		c-4.793,0-7.655,2.143-7.655,5.728c0,3.981,4.358,5.648,9.4,7.577c8.087,3.096,18.152,6.947,18.152,21.189
		C223.362,120.305,212.925,129.469,196.777,129.469z"/>
	<path fill="#FFFFFF" d="M241.514,128.553c-8.006,0-10.98-2.865-10.98-10.576V55.809l18.426-0.538v47.413
		c0,13.754,0.331,22.309,0.456,25.096C246.799,128.307,244.263,128.553,241.514,128.553z"/>
	<path fill="#FFFFFF" d="M268.021,51.531c5.873,0,10.434,3.648,10.434,9.931c0,5.975-4.561,10.025-10.434,10.025
		c-5.979,0-10.535-4.051-10.535-10.025C257.486,55.18,262.043,51.531,268.021,51.531z"/>
	<rect x="258.76" y="77.724" fill="#FFFFFF" width="18.426" height="50.122"/>
	<path fill="#FFFFFF" d="M316.811,55.796l18.076-0.525v47.413c0,13.754,0.33,22.309,0.455,25.096
		c-2.617,0.527-5.152,0.773-7.896,0.773c-5.133,0-7.842-1.811-8.789-5.879c-0.104-0.451-0.467-0.801-0.926-0.885
		c-0.074-0.012-0.143-0.02-0.215-0.02c-0.383,0-0.75,0.189-0.967,0.516c-3.08,4.561-7.631,6.775-13.92,6.775
		c-11.787,0-18.277-8.324-18.277-23.438c0-19.319,9.865-29.115,29.318-29.115h2.023c0.34,0,0.658-0.145,0.879-0.396
		c0.223-0.252,0.326-0.587,0.283-0.919c-0.332-2.646-0.496-5.938-0.496-9.786v-9.03C316.359,56.376,316.326,55.828,316.811,55.796z
		 M312.146,89.458c-6.014,0-9.066,4.483-9.066,13.327c0,5.197,0.742,12.111,7.143,12.111c2.09,0,4-1.029,5.846-3.141
		c0.186-0.215,0.291-0.488,0.291-0.77V91.235c0-0.491-0.307-0.929-0.77-1.098C314.359,89.688,313.203,89.458,312.146,89.458z"/>
	<path fill="#FFFFFF" d="M369.246,129.061c-19.385,0-27.289-7.494-27.289-25.869c0-16.21,9.875-26.684,25.166-26.684
		c10.139,0,22.227,3.891,22.227,22.428c0,3.018-0.164,5.15-0.371,6.936h-28.24c-0.355,0-0.693,0.164-0.916,0.445
		c-0.227,0.281-0.307,0.648-0.221,0.996c1.479,6.191,6.586,9.199,15.619,9.199c3.777,0,7.498-0.475,11.09-1.41l1.596,11.199
		C383.916,127.627,377.652,129.061,369.246,129.061z M367.018,87.734c-2.91,0-6.498,1.454-7.037,8.377
		c-0.025,0.324,0.084,0.645,0.305,0.885c0.223,0.24,0.533,0.377,0.859,0.377h11.041c0.645,0,1.17-0.525,1.17-1.172
		C373.355,88.562,368.924,87.734,367.018,87.734z"/>
	<path fill="#FFFFFF" d="M396.881,127.846v-24.961c0-13.755-0.332-22.312-0.461-25.097c2.883-0.599,5.414-0.879,7.898-0.879
		c5.586,0,8.385,2.402,9.07,7.79c0.068,0.528,0.482,0.945,1.012,1.014c0.051,0.007,0.1,0.011,0.152,0.011
		c0.467,0,0.902-0.287,1.08-0.732c2.311-5.71,6.1-8.483,11.578-8.483c1.801,0,3.574,0.161,4.953,0.441l-0.967,16.164
		c-1.891-0.498-3.648-0.617-4.898-0.617c-4.711,0-8.373,2.609-10.875,7.75c-0.076,0.16-0.117,0.336-0.117,0.512v27.088H396.881z"/>
	<g>
		<path fill="#FFFFFF" d="M154.166,122.251c0,3.077-2.518,5.595-5.595,5.595H87.729c-3.078,0-5.595-2.518-5.595-5.595V61.404
			c0-3.078,2.518-5.595,5.595-5.595h60.841c3.078,0,5.595,2.518,5.595,5.595V122.251z"/>
	</g>
	<g>
		<g>
			<path fill="#44B0E4" d="M115.909,73.332c-1.645-2.45-4.971-3.113-7.429-1.47l-16.529,11.02c-2.461,1.646-3.161,4.998-1.517,7.447
				c0,0,0.244,0.325,0.526,0.651c0.075,0.083,0.142,0.17,0.223,0.249c0.125,0.134,0.248,0.251,0.355,0.331
				c0.043,0.033,0.15,0.106,0.29,0.202c0.044,0.03,0.079,0.073,0.127,0.104l4.164,2.777c0.703,0.468,1.202,0.802,1.202,0.802l0,0
				l11.161,7.44c2.461,1.644,5.787,0.981,7.425-1.479c1.647-2.45,0.987-5.777-1.469-7.421l-9.903-6.604l9.899-6.617
				C116.893,79.117,117.553,75.787,115.909,73.332z"/>
			<path fill="#44B0E4" d="M145.865,93.322c0,0-0.01-0.016-0.019-0.023c-0.003-0.003-0.005-0.006-0.008-0.012
				c-0.061-0.079-0.233-0.302-0.441-0.543c-0.099-0.114-0.191-0.232-0.301-0.338c-0.118-0.125-0.235-0.235-0.335-0.312
				c-0.042-0.03-0.14-0.098-0.264-0.184c-0.054-0.039-0.096-0.087-0.151-0.124l-5.108-3.403c-0.161-0.11-0.258-0.174-0.258-0.174
				l0,0l-11.163-7.44c-2.458-1.646-5.784-0.983-7.424,1.477c-1.644,2.451-0.984,5.781,1.472,7.424l9.903,6.603l-9.898,6.62
				c-2.461,1.645-3.121,4.973-1.479,7.431c1.648,2.45,4.97,3.11,7.428,1.469l16.533-11.018
				C146.808,99.123,147.509,95.773,145.865,93.322z"/>
		</g>
	</g>
</g>
</svg>
