<?xml version="1.0" encoding="utf-8"?>
<!-- Generator: Adobe Illustrator 16.0.0, SVG Export Plug-In . SVG Version: 6.00 Build 0)  -->
<!DOCTYPE svg PUBLIC "-//W3C//DTD SVG 1.1//EN" "http://www.w3.org/Graphics/SVG/1.1/DTD/svg11.dtd">
<svg version="1.1" id="Layer_1" xmlns="http://www.w3.org/2000/svg" xmlns:xlink="http://www.w3.org/1999/xlink" x="0px" y="0px"
	 width="86px" height="86px" viewBox="0 0 86 86" enable-background="new 0 0 86 86" xml:space="preserve">
<g>
	<g>
		<path fill="#44B0E4" d="M79.016,73.924c0,3.077-2.518,5.595-5.595,5.595H12.58c-3.078,0-5.596-2.518-5.596-5.595V13.077
			c0-3.078,2.518-5.595,5.596-5.595h60.841c3.077,0,5.595,2.518,5.595,5.595V73.924z"/>
	</g>
	<g>
		<g>
			<path fill="#FFFFFF" d="M40.759,25.005c-1.645-2.45-4.971-3.113-7.429-1.47l-16.529,11.02c-2.461,1.646-3.16,4.998-1.517,7.447
				c0,0,0.243,0.325,0.526,0.651c0.074,0.083,0.142,0.17,0.223,0.249c0.125,0.134,0.248,0.251,0.354,0.331
				c0.043,0.033,0.15,0.106,0.29,0.202c0.044,0.03,0.079,0.073,0.127,0.104l4.163,2.777c0.703,0.468,1.202,0.802,1.202,0.802l0,0
				l11.16,7.44c2.462,1.644,5.787,0.981,7.426-1.479c1.646-2.45,0.987-5.777-1.47-7.421l-9.902-6.604l9.899-6.617
				C41.743,30.79,42.402,27.46,40.759,25.005z"/>
			<path fill="#FFFFFF" d="M70.715,44.995c0,0-0.01-0.016-0.019-0.023c-0.003-0.003-0.005-0.006-0.008-0.012
				c-0.062-0.079-0.233-0.302-0.44-0.543c-0.1-0.114-0.191-0.232-0.302-0.338c-0.118-0.125-0.235-0.235-0.335-0.312
				c-0.041-0.03-0.141-0.098-0.264-0.184c-0.055-0.039-0.096-0.087-0.151-0.124l-5.108-3.403c-0.161-0.11-0.258-0.174-0.258-0.174
				l0,0l-11.164-7.44c-2.457-1.646-5.783-0.983-7.424,1.477c-1.644,2.451-0.984,5.781,1.472,7.424l9.903,6.603l-9.898,6.62
				c-2.461,1.645-3.12,4.973-1.479,7.431c1.648,2.45,4.971,3.11,7.428,1.469l16.533-11.018
				C71.658,50.796,72.358,47.446,70.715,44.995z"/>
		</g>
	</g>
</g>
</svg>
